<svg width="67" height="67" viewBox="0 0 67 67" fill="none" xmlns="http://www.w3.org/2000/svg">
<path d="M39.2904 20.5977H27.4012C23.8574 20.5977 20.9543 23.5007 20.9543 27.0445V38.9337C20.9543 42.4775 23.8574 45.3806 27.4012 45.3806H39.2904C42.8342 45.3806 45.7373 42.4775 45.7373 38.9337V27.0445C45.7373 23.5007 42.8342 20.5977 39.2904 20.5977ZM33.2074 40.9666C28.8014 40.9666 25.2338 37.3991 25.2338 32.9931C25.2338 28.5871 28.8093 25.0195 33.2074 25.0195C37.6055 25.0195 41.181 28.5871 41.181 32.9931C41.181 37.3991 37.6055 40.9666 33.2074 40.9666ZM41.4736 26.6095C40.5877 26.6095 39.8757 25.8896 39.8757 25.0116C39.8757 24.1336 40.5956 23.4137 41.4736 23.4137C42.3517 23.4137 43.0715 24.1336 43.0715 25.0116C43.0715 25.8896 42.3517 26.6095 41.4736 26.6095Z" fill="#F0EEEB"/>
<path d="M33.2073 37.5904C35.7499 37.5904 37.8111 35.5292 37.8111 32.9866C37.8111 30.444 35.7499 28.3828 33.2073 28.3828C30.6647 28.3828 28.6035 30.444 28.6035 32.9866C28.6035 35.5292 30.6647 37.5904 33.2073 37.5904Z" fill="#F0EEEB"/>
<path d="M33.2074 0C14.8634 0 0 14.8713 0 33.2074C0 51.5434 14.8713 66.4148 33.2074 66.4148C51.5434 66.4148 66.4148 51.5434 66.4148 33.2074C66.4148 14.8713 51.5434 0 33.2074 0ZM48.9251 41.5448C48.9251 45.6028 45.6028 48.9172 41.5527 48.9172H24.8699C20.812 48.9172 17.4976 45.5949 17.4976 41.5448V24.862C17.4976 20.8041 20.8199 17.4897 24.8699 17.4897H41.5527C45.6107 17.4897 48.9251 20.812 48.9251 24.862V41.5448Z" fill="#F0EEEB"/>
</svg>
