<svg width="64" height="64" viewBox="0 0 64 64" fill="none" xmlns="http://www.w3.org/2000/svg">
<path d="M31.9962 0.199219C14.4552 0.199219 0.24231 14.4421 0.24231 32.0033C0.24231 49.5645 14.4552 63.8075 31.9962 63.8075C49.5373 63.8075 63.7501 49.5721 63.7501 32.0033C63.7501 14.4346 49.5297 0.199219 31.9962 0.199219ZM21.3763 17.5256C23.0555 17.5256 24.417 18.8817 24.417 20.5636C24.417 22.2454 23.0555 23.6015 21.3763 23.6015C19.6971 23.6015 18.3431 22.2454 18.3431 20.5636C18.3431 18.8817 19.7046 17.5256 21.3763 17.5256ZM24.4549 46.4508H18.2977V25.1698H24.4549V46.4508ZM39.6359 46.4811V33.9125C39.6359 33.9125 39.3182 31.2382 36.5649 31.2382C33.8116 31.2382 33.5771 33.8292 33.5771 33.8292V46.4811H27.4124V25.2076H33.5771V27.8744C33.5771 27.8744 34.2352 25.2076 37.5331 25.2076C40.831 25.2076 41.9278 25.2076 43.6297 26.3441C45.3392 27.4805 45.6947 29.1472 45.6947 46.4811H39.6359Z" fill="white"/>
</svg>
