<?xml version="1.0" encoding="UTF-8"?>
<svg id="Layer_2" data-name="Layer 2" xmlns="http://www.w3.org/2000/svg" viewBox="0 0 1500 2000">
  <defs>
    <style>
      .cls-1 {
        fill: #fff;
        stroke-width: 0px;
      }
    </style>
  </defs>
  <path class="cls-1" d="M351,55.5c-152.71,0-276.5,123.79-276.5,276.5s123.79,276.5,276.5,276.5,276.5-123.79,276.5-276.5S503.71,55.5,351,55.5ZM239,172c17.67,0,32,14.33,32,32s-14.33,32-32,32-32-14.33-32-32,14.33-32,32-32ZM271.5,476.5h-65v-224h65v224ZM431.53,476.81v-132.28s-3.41-28.22-32.41-28.22-31.5,27.37-31.5,27.37v133.13h-65v-224h65v28.17s6.93-28.17,41.71-28.17,46.29,0,64.29,12,21.82,29.5,21.82,212h-63.91Z"/>
</svg>