<?xml version="1.0" encoding="UTF-8"?>
<svg id="Layer_4_copy" data-name="Layer 4 copy" xmlns="http://www.w3.org/2000/svg" viewBox="0 0 317.29 290.39">
  <defs>
    <style>
      .cls-1 {
        fill: #fff;
        stroke-width: 0px;
      }
    </style>
  </defs>
  <path class="cls-1" d="M158.64,103.22c-23.19,0-41.98,18.8-41.98,41.98s18.79,41.98,41.98,41.98,41.98-18.79,41.98-41.98-18.8-41.98-41.98-41.98ZM144.6,126.09c2.22,0,4.02,1.79,4.02,4.01s-1.8,4.01-4.02,4.01-4.01-1.79-4.01-4.01,1.8-4.01,4.01-4.01ZM148.67,164.27h-8.14v-28.09h8.14v28.09ZM168.74,164.31v-16.59s-.42-3.53-4.06-3.53-3.95,3.42-3.95,3.42v16.7h-8.15v-28.08h8.15v3.52s.87-3.52,5.23-3.52,5.81,0,8.06,1.5c2.26,1.5,2.73,3.7,2.73,26.58h-8.01Z"/>
</svg>