<?xml version="1.0" encoding="UTF-8"?>
<svg id="Lag_2" data-name="Lag 2" xmlns="http://www.w3.org/2000/svg" viewBox="0 0 955.84 18.03">
  <defs>
    <style>
      .cls-1 {
        stroke-dasharray: 0 0 2.59 2.59;
      }

      .cls-1, .cls-2, .cls-3, .cls-4 {
        fill: none;
        stroke: #1d1d1b;
        stroke-miterlimit: 10;
      }

      .cls-2 {
        stroke-dasharray: 0 0 2.59 2.59;
      }

      .cls-5 {
        fill: #1d1d1b;
        stroke-width: 0px;
      }

      .cls-4 {
        stroke-dasharray: 0 0 2.97 2.97;
      }
    </style>
  </defs>
  <g id="Lag_1-2" data-name="Lag 1">
    <path class="cls-5" d="M906.86,7.01l-7.21.27s-5.02.56-4.24,4.13,5.58,1.98,5.58,1.98l6.67-2.02,48.19-11.37-48.98,7.01ZM899.62,11.8c-2.11.46-2.67-1-2.67-1,0,0,.06-1.35,2.33-1.85s5.68.79,5.68.79c0,0-3.23,1.6-5.34,2.07Z"/>
    <g>
      <path class="cls-3" d="M298.79,10.86c0-.51.06-1.01.17-1.49"/>
      <path class="cls-1" d="M300.02,7.02c1.23-1.72,3.26-2.84,5.55-2.84,2.76,0,5.14,1.62,6.19,3.96"/>
      <path class="cls-3" d="M312.18,9.37c.11.48.17.98.17,1.49"/>
    </g>
    <g>
      <path class="cls-3" d="M325.91,10.86c0,.51-.06,1.01-.17,1.49"/>
      <path class="cls-2" d="M324.68,14.69c-1.23,1.72-3.26,2.84-5.55,2.84-2.76,0-5.14-1.63-6.19-3.96"/>
      <path class="cls-3" d="M312.52,12.35c-.11-.48-.17-.98-.17-1.49"/>
    </g>
    <g>
      <path class="cls-3" d="M325.91,10.86c0-.51.06-1.01.17-1.49"/>
      <path class="cls-1" d="M327.13,7.02c1.23-1.72,3.26-2.84,5.55-2.84,2.76,0,5.14,1.62,6.19,3.96"/>
      <path class="cls-3" d="M339.3,9.37c.11.48.17.98.17,1.49"/>
    </g>
    <g>
      <path class="cls-3" d="M353.02,10.86c0,.51-.06,1.01-.17,1.49"/>
      <path class="cls-2" d="M351.79,14.69c-1.23,1.72-3.26,2.84-5.55,2.84-2.76,0-5.14-1.63-6.19-3.96"/>
      <path class="cls-3" d="M339.63,12.35c-.11-.48-.17-.98-.17-1.49"/>
    </g>
    <g>
      <path class="cls-3" d="M353.02,10.86c0-.51.06-1.01.17-1.49"/>
      <path class="cls-1" d="M354.25,7.02c1.23-1.72,3.26-2.84,5.55-2.84,2.76,0,5.14,1.62,6.19,3.96"/>
      <path class="cls-3" d="M366.41,9.37c.11.48.17.98.17,1.49"/>
    </g>
    <g>
      <path class="cls-3" d="M380.14,10.86c0,.51-.06,1.01-.17,1.49"/>
      <path class="cls-2" d="M378.91,14.69c-1.23,1.72-3.26,2.84-5.55,2.84-2.76,0-5.14-1.63-6.19-3.96"/>
      <path class="cls-3" d="M366.75,12.35c-.11-.48-.17-.98-.17-1.49"/>
    </g>
    <g>
      <path class="cls-3" d="M380.14,10.86c0-.51.06-1.01.17-1.49"/>
      <path class="cls-1" d="M381.37,7.02c1.23-1.72,3.26-2.84,5.55-2.84,2.76,0,5.14,1.62,6.19,3.96"/>
      <path class="cls-3" d="M393.53,9.37c.11.48.17.98.17,1.49"/>
    </g>
    <g>
      <path class="cls-3" d="M407.26,10.86c0,.51-.06,1.01-.17,1.49"/>
      <path class="cls-2" d="M406.03,14.69c-1.23,1.72-3.26,2.84-5.55,2.84-2.76,0-5.14-1.63-6.19-3.96"/>
      <path class="cls-3" d="M393.87,12.35c-.11-.48-.17-.98-.17-1.49"/>
    </g>
    <g>
      <path class="cls-3" d="M244.55,10.86c0-.51.06-1.01.17-1.49"/>
      <path class="cls-1" d="M245.78,7.02c1.23-1.72,3.26-2.84,5.55-2.84,2.76,0,5.14,1.62,6.19,3.96"/>
      <path class="cls-3" d="M257.94,9.37c.11.48.17.98.17,1.49"/>
    </g>
    <g>
      <path class="cls-3" d="M271.67,10.86c0,.51-.06,1.01-.17,1.49"/>
      <path class="cls-2" d="M270.44,14.69c-1.23,1.72-3.26,2.84-5.55,2.84-2.76,0-5.14-1.63-6.19-3.96"/>
      <path class="cls-3" d="M258.28,12.35c-.11-.48-.17-.98-.17-1.49"/>
    </g>
    <g>
      <path class="cls-3" d="M271.67,10.86c0-.51.06-1.01.17-1.49"/>
      <path class="cls-1" d="M272.9,7.02c1.23-1.72,3.26-2.84,5.55-2.84,2.76,0,5.14,1.62,6.19,3.96"/>
      <path class="cls-3" d="M285.06,9.37c.11.48.17.98.17,1.49"/>
    </g>
    <g>
      <path class="cls-3" d="M298.79,10.86c0,.51-.06,1.01-.17,1.49"/>
      <path class="cls-2" d="M297.56,14.69c-1.23,1.72-3.26,2.84-5.55,2.84-2.76,0-5.14-1.63-6.19-3.96"/>
      <path class="cls-3" d="M285.4,12.35c-.11-.48-.17-.98-.17-1.49"/>
    </g>
    <g>
      <path class="cls-3" d="M461.49,10.86c0-.51.06-1.01.17-1.49"/>
      <path class="cls-1" d="M462.72,7.02c1.23-1.72,3.26-2.84,5.55-2.84,2.76,0,5.14,1.62,6.19,3.96"/>
      <path class="cls-3" d="M474.88,9.37c.11.48.17.98.17,1.49"/>
    </g>
    <g>
      <path class="cls-3" d="M488.61,10.86c0,.51-.06,1.01-.17,1.49"/>
      <path class="cls-2" d="M487.38,14.69c-1.23,1.72-3.26,2.84-5.55,2.84-2.76,0-5.14-1.63-6.19-3.96"/>
      <path class="cls-3" d="M475.22,12.35c-.11-.48-.17-.98-.17-1.49"/>
    </g>
    <g>
      <path class="cls-3" d="M488.61,10.86c0-.51.06-1.01.17-1.49"/>
      <path class="cls-1" d="M489.84,7.02c1.23-1.72,3.26-2.84,5.55-2.84,2.76,0,5.14,1.62,6.19,3.96"/>
      <path class="cls-3" d="M502,9.37c.11.48.17.98.17,1.49"/>
    </g>
    <g>
      <path class="cls-3" d="M515.73,10.86c0,.51-.06,1.01-.17,1.49"/>
      <path class="cls-2" d="M514.5,14.69c-1.23,1.72-3.26,2.84-5.55,2.84-2.76,0-5.14-1.63-6.19-3.96"/>
      <path class="cls-3" d="M502.34,12.35c-.11-.48-.17-.98-.17-1.49"/>
    </g>
    <g>
      <path class="cls-3" d="M515.73,10.86c0-.51.06-1.01.17-1.49"/>
      <path class="cls-1" d="M516.96,7.02c1.23-1.72,3.26-2.84,5.55-2.84,2.76,0,5.14,1.62,6.19,3.96"/>
      <path class="cls-3" d="M529.12,9.37c.11.48.17.98.17,1.49"/>
    </g>
    <g>
      <path class="cls-3" d="M542.84,10.86c0,.51-.06,1.01-.17,1.49"/>
      <path class="cls-2" d="M541.61,14.69c-1.23,1.72-3.26,2.84-5.55,2.84-2.76,0-5.14-1.63-6.19-3.96"/>
      <path class="cls-3" d="M529.45,12.35c-.11-.48-.17-.98-.17-1.49"/>
    </g>
    <g>
      <path class="cls-3" d="M542.84,10.86c0-.51.06-1.01.17-1.49"/>
      <path class="cls-1" d="M544.07,7.02c1.23-1.72,3.26-2.84,5.55-2.84,2.76,0,5.14,1.62,6.19,3.96"/>
      <path class="cls-3" d="M556.23,9.37c.11.48.17.98.17,1.49"/>
    </g>
    <g>
      <path class="cls-3" d="M569.96,10.86c0,.51-.06,1.01-.17,1.49"/>
      <path class="cls-2" d="M568.73,14.69c-1.23,1.72-3.26,2.84-5.55,2.84-2.76,0-5.14-1.63-6.19-3.96"/>
      <path class="cls-3" d="M556.57,12.35c-.11-.48-.17-.98-.17-1.49"/>
    </g>
    <g>
      <path class="cls-3" d="M407.26,10.86c0-.51.06-1.01.17-1.49"/>
      <path class="cls-1" d="M408.49,7.02c1.23-1.72,3.26-2.84,5.55-2.84,2.76,0,5.14,1.62,6.19,3.96"/>
      <path class="cls-3" d="M420.65,9.37c.11.48.17.98.17,1.49"/>
    </g>
    <g>
      <path class="cls-3" d="M434.38,10.86c0,.51-.06,1.01-.17,1.49"/>
      <path class="cls-2" d="M433.15,14.69c-1.23,1.72-3.26,2.84-5.55,2.84-2.76,0-5.14-1.63-6.19-3.96"/>
      <path class="cls-3" d="M420.99,12.35c-.11-.48-.17-.98-.17-1.49"/>
    </g>
    <g>
      <path class="cls-3" d="M434.38,10.86c0-.51.06-1.01.17-1.49"/>
      <path class="cls-1" d="M435.6,7.02c1.23-1.72,3.26-2.84,5.55-2.84,2.76,0,5.14,1.62,6.19,3.96"/>
      <path class="cls-3" d="M447.76,9.37c.11.48.17.98.17,1.49"/>
    </g>
    <g>
      <path class="cls-3" d="M461.49,10.86c0,.51-.06,1.01-.17,1.49"/>
      <path class="cls-2" d="M460.26,14.69c-1.23,1.72-3.26,2.84-5.55,2.84-2.76,0-5.14-1.63-6.19-3.96"/>
      <path class="cls-3" d="M448.1,12.35c-.11-.48-.17-.98-.17-1.49"/>
    </g>
    <g>
      <path class="cls-3" d="M54.73,10.86c0-.51.06-1.01.17-1.49"/>
      <path class="cls-1" d="M55.96,7.02c1.23-1.72,3.26-2.84,5.55-2.84,2.76,0,5.14,1.62,6.19,3.96"/>
      <path class="cls-3" d="M68.12,9.37c.11.48.17.98.17,1.49"/>
    </g>
    <g>
      <path class="cls-3" d="M81.85,10.86c0,.51-.06,1.01-.17,1.49"/>
      <path class="cls-2" d="M80.62,14.69c-1.23,1.72-3.26,2.84-5.55,2.84-2.76,0-5.14-1.63-6.19-3.96"/>
      <path class="cls-3" d="M68.46,12.35c-.11-.48-.17-.98-.17-1.49"/>
    </g>
    <g>
      <path class="cls-3" d="M81.85,10.86c0-.51.06-1.01.17-1.49"/>
      <path class="cls-1" d="M83.08,7.02c1.23-1.72,3.26-2.84,5.55-2.84,2.76,0,5.14,1.62,6.19,3.96"/>
      <path class="cls-3" d="M95.24,9.37c.11.48.17.98.17,1.49"/>
    </g>
    <g>
      <path class="cls-3" d="M108.97,10.86c0,.51-.06,1.01-.17,1.49"/>
      <path class="cls-2" d="M107.74,14.69c-1.23,1.72-3.26,2.84-5.55,2.84-2.76,0-5.14-1.63-6.19-3.96"/>
      <path class="cls-3" d="M95.58,12.35c-.11-.48-.17-.98-.17-1.49"/>
    </g>
    <g>
      <path class="cls-3" d="M108.97,10.86c0-.51.06-1.01.17-1.49"/>
      <path class="cls-1" d="M110.2,7.02c1.23-1.72,3.26-2.84,5.55-2.84,2.76,0,5.14,1.62,6.19,3.96"/>
      <path class="cls-3" d="M122.36,9.37c.11.48.17.98.17,1.49"/>
    </g>
    <g>
      <path class="cls-3" d="M136.09,10.86c0,.51-.06,1.01-.17,1.49"/>
      <path class="cls-2" d="M134.86,14.69c-1.23,1.72-3.26,2.84-5.55,2.84-2.76,0-5.14-1.63-6.19-3.96"/>
      <path class="cls-3" d="M122.7,12.35c-.11-.48-.17-.98-.17-1.49"/>
    </g>
    <g>
      <path class="cls-3" d="M136.09,10.86c0-.51.06-1.01.17-1.49"/>
      <path class="cls-1" d="M137.31,7.02c1.23-1.72,3.26-2.84,5.55-2.84,2.76,0,5.14,1.62,6.19,3.96"/>
      <path class="cls-3" d="M149.48,9.37c.11.48.17.98.17,1.49"/>
    </g>
    <g>
      <path class="cls-3" d="M163.2,10.86c0,.51-.06,1.01-.17,1.49"/>
      <path class="cls-2" d="M161.97,14.69c-1.23,1.72-3.26,2.84-5.55,2.84-2.76,0-5.14-1.63-6.19-3.96"/>
      <path class="cls-3" d="M149.81,12.35c-.11-.48-.17-.98-.17-1.49"/>
    </g>
    <g>
      <path class="cls-3" d="M.5,10.86c0-.51.06-1.01.17-1.49"/>
      <path class="cls-1" d="M1.73,7.02c1.23-1.72,3.26-2.84,5.55-2.84,2.76,0,5.14,1.62,6.19,3.96"/>
      <path class="cls-3" d="M13.89,9.37c.11.48.17.98.17,1.49"/>
    </g>
    <g>
      <path class="cls-3" d="M27.62,10.86c0,.51-.06,1.01-.17,1.49"/>
      <path class="cls-2" d="M26.39,14.69c-1.23,1.72-3.26,2.84-5.55,2.84-2.76,0-5.14-1.63-6.19-3.96"/>
      <path class="cls-3" d="M14.23,12.35c-.11-.48-.17-.98-.17-1.49"/>
    </g>
    <g>
      <path class="cls-3" d="M27.62,10.86c0-.51.06-1.01.17-1.49"/>
      <path class="cls-1" d="M28.85,7.02c1.23-1.72,3.26-2.84,5.55-2.84,2.76,0,5.14,1.62,6.19,3.96"/>
      <path class="cls-3" d="M41.01,9.37c.11.48.17.98.17,1.49"/>
    </g>
    <g>
      <path class="cls-3" d="M54.73,10.86c0,.51-.06,1.01-.17,1.49"/>
      <path class="cls-2" d="M53.51,14.69c-1.23,1.72-3.26,2.84-5.55,2.84-2.76,0-5.14-1.63-6.19-3.96"/>
      <path class="cls-3" d="M41.35,12.35c-.11-.48-.17-.98-.17-1.49"/>
    </g>
    <g>
      <path class="cls-3" d="M217.44,10.86c0-.51.06-1.01.17-1.49"/>
      <path class="cls-1" d="M218.67,7.02c1.23-1.72,3.26-2.84,5.55-2.84,2.76,0,5.14,1.62,6.19,3.96"/>
      <path class="cls-3" d="M230.83,9.37c.11.48.17.98.17,1.49"/>
    </g>
    <g>
      <path class="cls-3" d="M244.55,10.86c0,.51-.06,1.01-.17,1.49"/>
      <path class="cls-2" d="M243.33,14.69c-1.23,1.72-3.26,2.84-5.55,2.84-2.76,0-5.14-1.63-6.19-3.96"/>
      <path class="cls-3" d="M231.17,12.35c-.11-.48-.17-.98-.17-1.49"/>
    </g>
    <g>
      <path class="cls-3" d="M163.2,10.86c0-.51.06-1.01.17-1.49"/>
      <path class="cls-1" d="M164.43,7.02c1.23-1.72,3.26-2.84,5.55-2.84,2.76,0,5.14,1.62,6.19,3.96"/>
      <path class="cls-3" d="M176.59,9.37c.11.48.17.98.17,1.49"/>
    </g>
    <g>
      <path class="cls-3" d="M190.32,10.86c0,.51-.06,1.01-.17,1.49"/>
      <path class="cls-2" d="M189.09,14.69c-1.23,1.72-3.26,2.84-5.55,2.84-2.76,0-5.14-1.63-6.19-3.96"/>
      <path class="cls-3" d="M176.93,12.35c-.11-.48-.17-.98-.17-1.49"/>
    </g>
    <g>
      <path class="cls-3" d="M190.32,10.86c0-.51.06-1.01.17-1.49"/>
      <path class="cls-1" d="M191.55,7.02c1.23-1.72,3.26-2.84,5.55-2.84,2.76,0,5.14,1.62,6.19,3.96"/>
      <path class="cls-3" d="M203.71,9.37c.11.48.17.98.17,1.49"/>
    </g>
    <g>
      <path class="cls-3" d="M217.44,10.86c0,.51-.06,1.01-.17,1.49"/>
      <path class="cls-2" d="M216.21,14.69c-1.23,1.72-3.26,2.84-5.55,2.84-2.76,0-5.14-1.63-6.19-3.96"/>
      <path class="cls-3" d="M204.05,12.35c-.11-.48-.17-.98-.17-1.49"/>
    </g>
    <g>
      <path class="cls-3" d="M624.2,10.86c0-.51.06-1.01.17-1.49"/>
      <path class="cls-1" d="M625.42,7.02c1.23-1.72,3.26-2.84,5.55-2.84,2.76,0,5.14,1.62,6.19,3.96"/>
      <path class="cls-3" d="M637.59,9.37c.11.48.17.98.17,1.49"/>
    </g>
    <g>
      <path class="cls-3" d="M651.31,10.86c0,.51-.06,1.01-.17,1.49"/>
      <path class="cls-2" d="M650.08,14.69c-1.23,1.72-3.26,2.84-5.55,2.84-2.76,0-5.14-1.63-6.19-3.96"/>
      <path class="cls-3" d="M637.92,12.35c-.11-.48-.17-.98-.17-1.49"/>
    </g>
    <g>
      <path class="cls-3" d="M651.31,10.86c0-.51.06-1.01.17-1.49"/>
      <path class="cls-1" d="M652.54,7.02c1.23-1.72,3.26-2.84,5.55-2.84,2.76,0,5.14,1.62,6.19,3.96"/>
      <path class="cls-3" d="M664.7,9.37c.11.48.17.98.17,1.49"/>
    </g>
    <g>
      <path class="cls-3" d="M678.43,10.86c0,.51-.06,1.01-.17,1.49"/>
      <path class="cls-2" d="M677.2,14.69c-1.23,1.72-3.26,2.84-5.55,2.84-2.76,0-5.14-1.63-6.19-3.96"/>
      <path class="cls-3" d="M665.04,12.35c-.11-.48-.17-.98-.17-1.49"/>
    </g>
    <g>
      <path class="cls-3" d="M678.43,10.86c0-.51.06-1.01.17-1.49"/>
      <path class="cls-1" d="M679.66,7.02c1.23-1.72,3.26-2.84,5.55-2.84,2.76,0,5.14,1.62,6.19,3.96"/>
      <path class="cls-3" d="M691.82,9.37c.11.48.17.98.17,1.49"/>
    </g>
    <g>
      <path class="cls-3" d="M705.55,10.86c0,.51-.06,1.01-.17,1.49"/>
      <path class="cls-2" d="M704.32,14.69c-1.23,1.72-3.26,2.84-5.55,2.84-2.76,0-5.14-1.63-6.19-3.96"/>
      <path class="cls-3" d="M692.16,12.35c-.11-.48-.17-.98-.17-1.49"/>
    </g>
    <g>
      <path class="cls-3" d="M705.55,10.86c0-.51.06-1.01.17-1.49"/>
      <path class="cls-1" d="M706.78,7.02c1.23-1.72,3.26-2.84,5.55-2.84,2.76,0,5.14,1.62,6.19,3.96"/>
      <path class="cls-3" d="M718.94,9.37c.11.48.17.98.17,1.49"/>
    </g>
    <g>
      <path class="cls-3" d="M732.66,10.86c0,.51-.06,1.01-.17,1.49"/>
      <path class="cls-2" d="M731.44,14.69c-1.23,1.72-3.26,2.84-5.55,2.84-2.76,0-5.14-1.63-6.19-3.96"/>
      <path class="cls-3" d="M719.28,12.35c-.11-.48-.17-.98-.17-1.49"/>
    </g>
    <g>
      <path class="cls-3" d="M569.96,10.86c0-.51.06-1.01.17-1.49"/>
      <path class="cls-1" d="M571.19,7.02c1.23-1.72,3.26-2.84,5.55-2.84,2.76,0,5.14,1.62,6.19,3.96"/>
      <path class="cls-3" d="M583.35,9.37c.11.48.17.98.17,1.49"/>
    </g>
    <g>
      <path class="cls-3" d="M597.08,10.86c0,.51-.06,1.01-.17,1.49"/>
      <path class="cls-2" d="M595.85,14.69c-1.23,1.72-3.26,2.84-5.55,2.84-2.76,0-5.14-1.63-6.19-3.96"/>
      <path class="cls-3" d="M583.69,12.35c-.11-.48-.17-.98-.17-1.49"/>
    </g>
    <g>
      <path class="cls-3" d="M597.08,10.86c0-.51.06-1.01.17-1.49"/>
      <path class="cls-1" d="M598.31,7.02c1.23-1.72,3.26-2.84,5.55-2.84,2.76,0,5.14,1.62,6.19,3.96"/>
      <path class="cls-3" d="M610.47,9.37c.11.48.17.98.17,1.49"/>
    </g>
    <g>
      <path class="cls-3" d="M624.2,10.86c0,.51-.06,1.01-.17,1.49"/>
      <path class="cls-2" d="M622.97,14.69c-1.23,1.72-3.26,2.84-5.55,2.84-2.76,0-5.14-1.63-6.19-3.96"/>
      <path class="cls-3" d="M610.81,12.35c-.11-.48-.17-.98-.17-1.49"/>
    </g>
    <g>
      <path class="cls-3" d="M786.9,10.86c0-.51.06-1.01.17-1.49"/>
      <path class="cls-1" d="M788.13,7.02c1.23-1.72,3.26-2.84,5.55-2.84,2.76,0,5.14,1.62,6.19,3.96"/>
      <path class="cls-3" d="M800.29,9.37c.11.48.17.98.17,1.49"/>
    </g>
    <g>
      <path class="cls-3" d="M814.02,10.86c0,.51-.06,1.01-.17,1.49"/>
      <path class="cls-2" d="M812.79,14.69c-1.23,1.72-3.26,2.84-5.55,2.84-2.76,0-5.14-1.63-6.19-3.96"/>
      <path class="cls-3" d="M800.63,12.35c-.11-.48-.17-.98-.17-1.49"/>
    </g>
    <g>
      <path class="cls-3" d="M814.02,10.86c0-.51.06-1.01.17-1.49"/>
      <path class="cls-1" d="M815.24,7.02c1.23-1.72,3.26-2.84,5.55-2.84,2.76,0,5.14,1.62,6.19,3.96"/>
      <path class="cls-3" d="M827.41,9.37c.11.48.17.98.17,1.49"/>
    </g>
    <g>
      <path class="cls-3" d="M841.13,10.86c0,.51-.06,1.01-.17,1.49"/>
      <path class="cls-2" d="M839.9,14.69c-1.23,1.72-3.26,2.84-5.55,2.84-2.76,0-5.14-1.63-6.19-3.96"/>
      <path class="cls-3" d="M827.74,12.35c-.11-.48-.17-.98-.17-1.49"/>
    </g>
    <g>
      <path class="cls-3" d="M841.13,10.86c0-.51.06-1.01.17-1.49"/>
      <path class="cls-1" d="M842.36,7.02c1.23-1.72,3.26-2.84,5.55-2.84,2.76,0,5.14,1.62,6.19,3.96"/>
      <path class="cls-3" d="M854.52,9.37c.11.48.17.98.17,1.49"/>
    </g>
    <g>
      <path class="cls-3" d="M868.25,10.86c0,.51-.06,1.01-.17,1.49"/>
      <path class="cls-2" d="M867.02,14.69c-1.23,1.72-3.26,2.84-5.55,2.84-2.76,0-5.14-1.63-6.19-3.96"/>
      <path class="cls-3" d="M854.86,12.35c-.11-.48-.17-.98-.17-1.49"/>
    </g>
    <g>
      <path class="cls-3" d="M868.25,10.86c0-.51.06-1.01.17-1.49"/>
      <path class="cls-1" d="M869.48,7.02c1.23-1.72,3.26-2.84,5.55-2.84,2.76,0,5.14,1.62,6.19,3.96"/>
      <path class="cls-3" d="M881.64,9.37c.11.48.17.98.17,1.49"/>
    </g>
    <g>
      <path class="cls-3" d="M881.81,10.86c0,.51.06,1.01.17,1.49"/>
      <path class="cls-4" d="M883.27,14.99c1.24,1.55,3.16,2.54,5.32,2.54,3.74,0,1.73-6.67,6.78-6.67h11.77"/>
      <path class="cls-3" d="M908.64,10.86h1.5"/>
    </g>
    <g>
      <path class="cls-3" d="M732.66,10.86c0-.51.06-1.01.17-1.49"/>
      <path class="cls-1" d="M733.89,7.02c1.23-1.72,3.26-2.84,5.55-2.84,2.76,0,5.14,1.62,6.19,3.96"/>
      <path class="cls-3" d="M746.05,9.37c.11.48.17.98.17,1.49"/>
    </g>
    <g>
      <path class="cls-3" d="M759.78,10.86c0,.51-.06,1.01-.17,1.49"/>
      <path class="cls-2" d="M758.55,14.69c-1.23,1.72-3.26,2.84-5.55,2.84-2.76,0-5.14-1.63-6.19-3.96"/>
      <path class="cls-3" d="M746.39,12.35c-.11-.48-.17-.98-.17-1.49"/>
    </g>
    <g>
      <path class="cls-3" d="M759.78,10.86c0-.51.06-1.01.17-1.49"/>
      <path class="cls-1" d="M761.01,7.02c1.23-1.72,3.26-2.84,5.55-2.84,2.76,0,5.14,1.62,6.19,3.96"/>
      <path class="cls-3" d="M773.17,9.37c.11.48.17.98.17,1.49"/>
    </g>
    <g>
      <path class="cls-3" d="M786.9,10.86c0,.51-.06,1.01-.17,1.49"/>
      <path class="cls-2" d="M785.67,14.69c-1.23,1.72-3.26,2.84-5.55,2.84-2.76,0-5.14-1.63-6.19-3.96"/>
      <path class="cls-3" d="M773.51,12.35c-.11-.48-.17-.98-.17-1.49"/>
    </g>
  </g>
</svg>